HIERARCHY
ROOT Hips
{
	OFFSET 0.000000 0.000000 0.000000
	CHANNELS 6 Xposition Yposition Zposition Xrotation Yrotation Zrotation
	JOINT LeftUpLeg_virtual
	{
		OFFSET 0.000000 0.000000 0.000000
		CHANNELS 3 Xrotation Yrotation Zrotation
		JOINT LeftUpLeg
		{
			OFFSET 11.394100 -6.187798 -0.413800
			CHANNELS 3 Xrotation Yrotation Zrotation
			JOINT LeftLeg
			{
				OFFSET 0.430247 -32.302673 3.732800
				CHANNELS 3 Xrotation Yrotation Zrotation
				JOINT LeftFoot
				{
					OFFSET -0.430247 -48.264931 -6.423300
					CHANNELS 3 Xrotation Yrotation Zrotation
					JOINT LeftToeBase
					{
						OFFSET 4.230900 -16.068199 23.438400
						CHANNELS 3 Xrotation Yrotation Zrotation
						JOINT LeftToe_End
						{
							OFFSET 4.510700 0.695400 19.974600
							CHANNELS 3 Xrotation Yrotation Zrotation
							End Site
							{
								OFFSET 0 0 0
							}
						}
					}
				}
			}
		}
	}
	JOINT RightUpLeg_virtual
	{
		OFFSET 0.000000 0.000000 0.000000
		CHANNELS 3 Xrotation Yrotation Zrotation
		JOINT RightUpLeg
		{
			OFFSET -11.333700 -6.187798 -0.413800
			CHANNELS 3 Xrotation Yrotation Zrotation
			JOINT RightLeg
			{
				OFFSET -0.430392 -32.302628 3.733000
				CHANNELS 3 Xrotation Yrotation Zrotation
				JOINT RightFoot
				{
					OFFSET 0.430392 -48.264973 -6.423500
					CHANNELS 3 Xrotation Yrotation Zrotation
					JOINT RightToeBase
					{
						OFFSET -4.230900 -16.068199 23.438400
						CHANNELS 3 Xrotation Yrotation Zrotation
						JOINT RightToe_End
						{
							OFFSET -4.510700 0.695400 19.974600
							CHANNELS 3 Xrotation Yrotation Zrotation
							End Site
							{
								OFFSET 0 0 0
							}
						}
					}
				}
			}
		}
	}
	JOINT Spine_virtual
	{
		OFFSET 0.000000 0.000000 0.000000
		CHANNELS 3 Xrotation Yrotation Zrotation
		JOINT Spine
		{
			OFFSET -0.002400 12.777504 0.315300
			CHANNELS 3 Xrotation Yrotation Zrotation
			JOINT Spine1
			{
				OFFSET -0.002067 5.816869 0.032633
				CHANNELS 3 Xrotation Yrotation Zrotation
				JOINT Spine1_split
				{
					OFFSET -0.002067 5.816869 0.032633
					CHANNELS 3 Xrotation Yrotation Zrotation
					JOINT Spine2
					{
						OFFSET -0.002067 5.816869 0.032633
						CHANNELS 3 Xrotation Yrotation Zrotation
						JOINT Neck_virtual
						{
							OFFSET 0.000000 0.000000 0.000000
							CHANNELS 3 Xrotation Yrotation Zrotation
							JOINT Neck
							{
								OFFSET -0.003700 21.199493 -0.826900
								CHANNELS 3 Xrotation Yrotation Zrotation
								JOINT Head
								{
									OFFSET 0.000000 20.442200 4.834800
									CHANNELS 3 Xrotation Yrotation Zrotation
									JOINT HeadTop_End
									{
										OFFSET 0.000000 34.668396 4.968400
										CHANNELS 3 Xrotation Yrotation Zrotation
										End Site
										{
											OFFSET 0 0 0
										}
									}
								}
							}
						}
						JOINT LeftShoulder_virtual
						{
							OFFSET 0.000000 0.000000 0.000000
							CHANNELS 3 Xrotation Yrotation Zrotation
							JOINT LeftShoulder
							{
								OFFSET 3.288150 8.794197 -1.372250
								CHANNELS 3 Xrotation Yrotation Zrotation
								JOINT LeftShoulder_split
								{
									OFFSET 3.288150 8.794197 -1.372250
									CHANNELS 3 Xrotation Yrotation Zrotation
									JOINT LeftArm
									{
										OFFSET 11.953299 -2.279007 -0.146200
										CHANNELS 3 Xrotation Yrotation Zrotation
										JOINT LeftForeArm
										{
											OFFSET 18.448900 0.000000 0.000000
											CHANNELS 3 Xrotation Yrotation Zrotation
											JOINT LeftHand
											{
												OFFSET 29.527798 0.000000 0.000000
												CHANNELS 3 Xrotation Yrotation Zrotation
												End Site
												{
													OFFSET 0 0 0
												}
											}
										}
									}
								}
							}
						}
						JOINT RightShoulder_virtual
						{
							OFFSET 0.000000 0.000000 0.000000
							CHANNELS 3 Xrotation Yrotation Zrotation
							JOINT RightShoulder
							{
								OFFSET -3.249400 8.794197 -1.372250
								CHANNELS 3 Xrotation Yrotation Zrotation
								JOINT RightShoulder_split
								{
									OFFSET -3.249400 8.794197 -1.372250
									CHANNELS 3 Xrotation Yrotation Zrotation
									JOINT RightArm
									{
										OFFSET -11.953299 -2.279007 -0.146200
										CHANNELS 3 Xrotation Yrotation Zrotation
										JOINT RightForeArm
										{
											OFFSET -18.448900 0.000000 0.000000
											CHANNELS 3 Xrotation Yrotation Zrotation
											JOINT RightHand
											{
												OFFSET -29.527802 0.000000 0.000000
												CHANNELS 3 Xrotation Yrotation Zrotation
												End Site
												{
													OFFSET 0 0 0
												}
											}
										}
									}
								}
							}
						}
					}
				}
			}
		}
	}
}
MOTION
Frames: 10
Frame Time: 0.03333333
-1.457619 96.051735 14.464523 0.000000 0.000000 0.000000 172.259857 -60.711721 173.308919 -2.908417 14.965520 15.458945 22.759608 20.184701 1.518931 -6.864646 2.402179 -26.086246 -8.870553 2.960823 -1.118251 0.000000 0.000000 0.000000 171.627860 -60.310844 172.378279 -30.673516 -18.729746 -17.832751 24.345115 -11.561804 -0.390109 6.688350 1.571520 5.927545 -4.201856 -10.644944 6.191845 0.000000 0.000000 0.000000 172.238410 -63.938999 172.284869 10.464093 0.054597 0.386446 -0.633978 -1.110988 2.435424 0.777591 -1.731764 0.197403 0.000000 0.000000 0.000000 -1.837378 -1.008298 2.780128 -3.838964 19.551698 4.346190 -0.957301 27.516010 -7.694818 0.000000 0.000000 0.000000 -2.185018 -0.735415 2.583380 1.402632 2.934055 -7.942172 2.170309 -2.847299 -2.551692 -0.989224 -10.938015 -57.011060 6.550049 -15.888202 -6.514131 0.000000 0.000000 0.000000 -2.181524 -1.046970 1.926556 2.088786 -1.018774 18.581402 -3.056523 -1.655568 -0.454312 16.441901 26.555907 45.832635 16.344870 24.167200 -5.325290 0.000000 0.000000 0.000000 
-1.455981 95.465897 12.669717 0.000000 0.000000 0.000000 173.046080 -56.990279 174.252251 0.929803 16.192285 15.577732 22.536909 22.152839 1.279803 -7.028841 3.307007 -27.528483 -9.533286 3.355314 -1.132357 0.000000 0.000000 0.000000 172.633332 -56.515786 173.544015 -33.070147 -19.789317 -17.197604 26.219360 -11.051315 -0.472386 7.281880 2.849317 5.307829 -4.906395 -10.701654 5.978478 0.000000 0.000000 0.000000 173.497091 -59.825340 173.685249 10.693762 -0.619704 0.283525 -0.563613 -1.491037 2.917297 0.864399 -1.326908 0.127626 0.000000 0.000000 0.000000 -1.865734 -1.407749 3.219939 -3.939130 17.301824 3.305522 -1.008738 23.009058 -6.319437 0.000000 0.000000 0.000000 -2.152966 -1.120403 3.093367 1.415548 3.225745 -8.820188 1.877906 -2.988190 -2.120974 0.209644 -11.296738 -57.506061 5.721492 -15.752018 -6.423958 0.000000 0.000000 0.000000 -2.076344 -1.432723 2.400865 2.080416 -1.351358 17.898145 -3.179330 -1.687181 -0.470433 15.805806 27.889901 45.742207 16.059165 23.836167 -5.558294 0.000000 0.000000 0.000000 
-1.446619 94.864639 10.719307 0.000000 0.000000 0.000000 173.759193 -53.358565 175.032449 3.447348 16.797780 16.134498 24.674840 23.076081 0.705076 -6.472619 3.353805 -28.429259 -9.191248 4.031498 -2.359074 0.000000 0.000000 0.000000 173.569860 -52.739285 174.540211 -34.495631 -20.938775 -16.010906 27.672201 -10.384358 -0.705737 7.093612 3.761046 4.149395 -5.479513 -10.663788 5.660092 0.000000 0.000000 0.000000 174.566590 -55.764034 174.716198 11.134907 -1.387261 0.177051 -0.582052 -1.886949 3.261514 0.919593 -0.898936 0.012797 0.000000 0.000000 0.000000 -1.938369 -1.824720 3.523048 -3.949588 14.743998 2.544010 -0.906480 18.249325 -5.058368 0.000000 0.000000 0.000000 -2.163865 -1.523995 3.473174 1.431814 3.345635 -9.501072 1.750191 -3.149780 -1.535017 1.779658 -11.648053 -58.129452 4.902510 -16.026713 -6.505432 0.000000 0.000000 0.000000 -2.059570 -1.835261 2.772305 2.108831 -1.626151 17.384570 -3.501343 -1.563052 -0.523971 15.295169 29.092105 45.666033 15.639530 23.476410 -5.483421 0.000000 0.000000 0.000000 
-1.411243 94.383102 8.537785 0.000000 0.000000 0.000000 174.468795 -49.888907 175.698174 3.971927 16.255961 17.207176 28.788872 22.462416 0.150168 -4.160596 2.047117 -29.223029 -9.281308 4.971567 -4.747203 0.000000 0.000000 0.000000 174.551454 -49.122365 175.435007 -34.822811 -21.968163 -14.265437 28.594348 -9.668927 -1.095019 6.188305 4.122812 2.413585 -5.629516 -10.561866 5.301173 0.000000 0.000000 0.000000 175.505863 -51.785248 175.448749 11.754824 -2.083496 0.122996 -0.720917 -2.220923 3.360599 0.952589 -0.343785 0.019166 0.000000 0.000000 0.000000 -2.044866 -2.172909 3.569450 -3.824680 11.949146 2.189543 -0.685806 13.391866 -3.947703 0.000000 0.000000 0.000000 -2.246718 -1.864669 3.600950 1.433315 3.321019 -9.865719 1.640941 -3.174390 -0.954058 3.461516 -11.770125 -58.824062 4.115269 -16.625109 -6.773756 0.000000 0.000000 0.000000 -2.141935 -2.174584 2.915484 2.140845 -1.821362 17.067273 -3.792547 -1.353374 -0.598897 14.831993 29.977328 45.683143 15.176064 23.173278 -5.211269 0.000000 0.000000 0.000000 
-1.325644 94.145897 6.180969 0.000000 0.000000 0.000000 175.405569 -46.512734 176.370320 2.958807 14.441730 18.242848 33.711645 21.028827 -0.044734 -0.271645 -0.144537 -28.794281 -11.129547 6.183922 -8.020138 0.000000 0.000000 0.000000 175.590326 -45.546399 176.171588 -34.256947 -22.496229 -12.002136 29.207596 -8.757718 -1.629632 4.878823 4.084620 0.508680 -5.527431 -10.442376 4.760708 0.000000 0.000000 0.000000 176.404293 -47.908494 175.950960 12.466168 -2.559449 0.175819 -0.972912 -2.443132 3.182722 0.838972 0.087615 0.037165 0.000000 0.000000 0.000000 -2.172308 -2.384194 3.336541 -3.534871 9.040679 2.270254 -0.380287 8.672988 -3.026307 0.000000 0.000000 0.000000 -2.374280 -2.075092 3.440527 1.434097 3.191395 -9.874298 1.448401 -2.952862 -0.489200 4.948282 -11.455475 -59.604916 3.437235 -17.303393 -7.222928 0.000000 0.000000 0.000000 -2.307247 -2.379145 2.792979 2.114574 -1.972328 16.918495 -3.969876 -1.099375 -0.672375 14.372439 30.518129 45.756315 14.771975 23.064015 -4.905307 0.000000 0.000000 0.000000 
-1.323185 94.265862 3.647015 0.000000 0.000000 0.000000 176.571482 -43.136493 176.977810 1.246986 12.175105 18.708858 38.320397 19.874163 0.039429 3.587699 -1.902501 -25.707983 -14.308623 7.702503 -11.947492 0.000000 0.000000 0.000000 176.723468 -42.065465 176.728303 -33.093831 -22.288890 -9.367163 29.727135 -7.577607 -2.252242 3.605046 3.869367 -1.046174 -5.612810 -10.357522 3.918368 0.000000 0.000000 0.000000 177.321150 -44.101391 176.378625 13.156823 -2.694285 0.338909 -1.276281 -2.498072 2.773271 0.677988 0.326078 0.058363 0.000000 0.000000 0.000000 -2.319393 -2.409697 2.869551 -3.040208 6.126231 2.701357 -0.014060 4.242389 -2.345060 0.000000 0.000000 0.000000 -2.522054 -2.106252 3.023142 1.439263 2.991436 -9.599600 1.220258 -2.526561 -0.203866 6.150250 -10.571208 -60.471975 2.979774 -17.661300 -7.779189 0.000000 0.000000 0.000000 -2.504353 -2.395806 2.438075 2.024596 -2.142442 16.893035 -3.931031 -0.915164 -0.738727 13.899916 30.896432 45.714442 14.492108 23.131593 -4.662465 0.000000 0.000000 0.000000 
-1.409927 94.728165 0.911757 0.000000 0.000000 0.000000 177.810219 -39.567160 177.396064 -0.824942 10.149828 18.306264 42.517118 19.515198 0.109306 6.083101 -2.420961 -19.912652 -16.935951 9.210488 -16.044850 0.000000 0.000000 0.000000 177.849424 -38.490828 177.063365 -31.570961 -21.294539 -6.531611 29.963514 -6.009227 -2.917618 2.556312 3.718157 -1.636268 -6.533457 -10.328661 2.671052 0.000000 0.000000 0.000000 178.256353 -40.325246 176.792371 13.737557 -2.446322 0.589693 -1.577319 -2.359968 2.233986 0.477204 0.448939 0.098990 0.000000 0.000000 0.000000 -2.470502 -2.231508 2.258242 -2.350826 3.326299 3.315330 0.389034 0.242947 -1.894516 0.000000 0.000000 0.000000 -2.650899 -1.948235 2.459781 1.455393 2.818046 -9.201846 0.975827 -2.001784 0.068479 7.131271 -9.130372 -61.454169 2.821102 -17.461486 -8.360232 0.000000 0.000000 0.000000 -2.688695 -2.207497 1.950018 1.901153 -2.395809 16.870064 -3.761913 -0.912729 -0.792708 13.510042 31.322199 45.363497 14.372808 23.247240 -4.527900 0.000000 0.000000 0.000000 
-1.678445 95.425568 -2.079975 0.000000 0.000000 0.000000 178.979288 -35.864797 177.616583 -3.424893 8.686724 17.262933 46.703136 19.355752 -0.137948 6.818593 -2.222015 -12.970503 -18.246519 10.211964 -19.175117 0.000000 0.000000 0.000000 178.809298 -34.798181 177.150382 -29.710828 -19.526548 -3.680382 29.822044 -4.053774 -3.553005 1.528873 3.776505 -1.271466 -8.057890 -10.260020 1.174450 0.000000 0.000000 0.000000 179.110127 -36.608830 177.173454 14.094084 -1.886081 0.857779 -1.815169 -2.040836 1.676713 0.261545 0.386275 0.090828 0.000000 0.000000 0.000000 -2.616996 -1.879991 1.632689 -1.532882 0.748632 3.939673 0.824623 -3.208341 -1.684625 0.000000 0.000000 0.000000 -2.735419 -1.619818 1.872701 1.475386 2.710244 -8.808282 0.883252 -1.565326 0.330629 7.961380 -7.360846 -62.549377 3.042214 -16.809495 -8.857328 0.000000 0.000000 0.000000 -2.828658 -1.840467 1.441605 1.780570 -2.817328 16.831859 -3.574505 -0.967642 -0.781680 13.289683 31.806545 44.677234 14.357189 23.177646 -4.469137 0.000000 0.000000 0.000000 
-2.080510 96.235825 -5.335281 0.000000 0.000000 0.000000 179.801069 -31.980523 177.661389 -6.938001 7.931083 15.883762 50.897986 18.435304 -0.594319 6.058843 -2.423231 -7.039920 -19.194428 10.394015 -19.808291 0.000000 0.000000 0.000000 179.444219 -31.010189 177.101000 -27.498786 -17.132157 -0.950523 29.132369 -2.065670 -4.030244 0.196562 3.849802 -0.722528 -8.783875 -10.058744 -0.086158 0.000000 0.000000 0.000000 179.723041 -32.985326 177.432414 14.182295 -1.148321 1.032652 -1.968297 -1.584327 1.204151 0.252491 0.331517 0.045272 0.000000 0.000000 0.000000 -2.725010 -1.411465 1.084898 -0.666576 -1.522674 4.411216 1.252931 -6.033110 -1.640706 0.000000 0.000000 0.000000 -2.791901 -1.174551 1.358619 1.483004 2.739715 -8.522253 0.929838 -1.224207 0.738755 8.858014 -5.491560 -63.702879 3.631703 -15.991911 -9.155186 0.000000 0.000000 0.000000 -2.896039 -1.352835 0.999593 1.718842 -3.422782 16.752736 -3.484899 -1.005954 -0.747071 13.340699 32.274782 43.853735 14.384228 22.792789 -4.419551 0.000000 0.000000 0.000000 
-2.583033 96.983856 -8.780306 0.000000 0.000000 0.000000 -179.827024 -28.217099 177.626938 -11.146132 7.626258 14.082113 54.250328 16.530118 -0.905285 4.590665 -3.462115 -2.919690 -20.849004 9.680302 -17.247392 0.000000 0.000000 0.000000 179.663031 -27.055158 176.970488 -25.168745 -14.216219 1.447027 27.845394 -0.226426 -4.297850 -1.602060 3.720702 -0.530121 -7.851198 -9.737157 -0.836159 0.000000 0.000000 0.000000 -179.939080 -29.473800 177.619670 13.956415 -0.402110 1.026814 -2.029453 -1.061024 0.880252 0.303864 0.425908 0.107536 0.000000 0.000000 0.000000 -2.765499 -0.897551 0.686304 0.136718 -3.424174 4.652416 1.657121 -8.118382 -1.714583 0.000000 0.000000 0.000000 -2.809261 -0.679876 0.984879 1.475162 2.924090 -8.351644 1.090878 -0.976384 1.145055 9.799052 -3.816136 -64.890964 4.513381 -15.308168 -9.214064 0.000000 0.000000 0.000000 -2.899506 -0.817958 0.685652 1.726909 -4.192891 16.668047 -3.438922 -0.840969 -0.706345 13.630279 32.474664 43.227103 14.416636 22.226117 -4.338235 0.000000 0.000000 0.000000 
